<?xml version="1.0" encoding="UTF-8" standalone="no"?>
<svg
   style="fill-opacity:1; color-rendering:auto; color-interpolation:auto; text-rendering:auto; stroke:black; stroke-linecap:square; stroke-miterlimit:10; shape-rendering:auto; stroke-opacity:1; fill:black; stroke-dasharray:none; font-weight:normal; stroke-width:1; font-family:'Dialog'; font-style:normal; stroke-linejoin:miter; font-size:12px; stroke-dashoffset:0; image-rendering:auto;"
   width="1120"
   height="840"
   version="1.1"
   id="svg4"
   sodipodi:docname="Archimedean.svg"
   inkscape:version="1.4.2 (f4327f4, 2025-05-13)"
   xmlns:inkscape="http://www.inkscape.org/namespaces/inkscape"
   xmlns:sodipodi="http://sodipodi.sourceforge.net/DTD/sodipodi-0.dtd"
   xmlns="http://www.w3.org/2000/svg"
   xmlns:svg="http://www.w3.org/2000/svg">
  <sodipodi:namedview
     id="namedview4"
     pagecolor="#ffffff"
     bordercolor="#000000"
     borderopacity="0.25"
     inkscape:showpageshadow="2"
     inkscape:pageopacity="0.0"
     inkscape:pagecheckerboard="0"
     inkscape:deskcolor="#d1d1d1"
     inkscape:zoom="2"
     inkscape:cx="673.75"
     inkscape:cy="569"
     inkscape:window-width="1536"
     inkscape:window-height="938"
     inkscape:window-x="-6"
     inkscape:window-y="-6"
     inkscape:window-maximized="1"
     inkscape:current-layer="g4" />
  <!--Generated by the Batik Graphics2D SVG Generator-->
  <defs
     id="genericDefs">
    <rect
       x="577.6513"
       y="776.53098"
       width="20.954611"
       height="13.692363"
       id="rect17" />
    <marker
       style="overflow:visible"
       id="marker17"
       refX="0"
       refY="0"
       orient="auto-start-reverse"
       inkscape:stockid="Wide, heavy arrow"
       markerWidth="1"
       markerHeight="1"
       viewBox="0 0 1 1"
       inkscape:isstock="true"
       inkscape:collect="always"
       preserveAspectRatio="xMidYMid">
      <path
         style="fill:context-stroke;fill-rule:evenodd;stroke:none"
         d="m 1,0 -3,3 h -2 l 3,-3 -3,-3 h 2 z"
         id="path17" />
    </marker>
    <marker
       style="overflow:visible"
       id="ArrowWideHeavy"
       refX="0"
       refY="0"
       orient="auto-start-reverse"
       inkscape:stockid="Wide, heavy arrow"
       markerWidth="1"
       markerHeight="1"
       viewBox="0 0 1 1"
       inkscape:isstock="true"
       inkscape:collect="always"
       preserveAspectRatio="xMidYMid">
      <path
         style="fill:context-stroke;fill-rule:evenodd;stroke:none"
         d="m 1,0 -3,3 h -2 l 3,-3 -3,-3 h 2 z"
         id="path3" />
    </marker>
  </defs>
  <g
     id="g4">
    <defs
       id="defs1">
      <clipPath
         clipPathUnits="userSpaceOnUse"
         id="clipPath1">
        <path
           d="M0 0 L1120 0 L1120 840 L0 840 L0 0 Z"
           id="path1" />
      </clipPath>
    </defs>
    <g
       style="stroke-linecap:butt;fill:none;text-rendering:geometricPrecision;image-rendering:optimizeQuality;color-rendering:optimizeQuality;stroke-linejoin:round;stroke:#21a7ff;color-interpolation:linearRGB;stroke-width:4;stroke-opacity:0.25479451"
       id="g3">
      <path
         d="M927.8499 399.9267 L927.2266 417.6819 L925.7122 435.3745 L923.3114 452.9597 L920.0312 470.3932 L915.8808 487.6312 L910.8715 504.6302 L905.0168 521.3475 L898.3325 537.741 L890.8362 553.7697 L882.5478 569.3935 L873.4888 584.5731 L863.6832 599.2707 L853.1563 613.4496 L841.9355 627.0745 L830.05 640.1115 L817.5303 652.5282 L804.4089 664.2938 L790.7194 675.3793 L776.4971 685.7573 L761.7785 695.4023 L746.6013 704.2906 L731.0043 712.4006 L715.0273 719.7125 L698.7113 726.2086 L682.0977 731.8734 L665.2288 736.6932 L648.1477 740.6569 L630.8976 743.7553 L613.5223 745.9814 L596.066 747.3304 L578.5729 747.8 L561.0871 747.3896 L543.6529 746.1014 L526.3144 743.9394 L509.1152 740.91 L492.0988 737.0217 L475.3079 732.2852 L458.7848 726.7134 L442.571 720.3213 L426.7071 713.1257 L411.233 705.1458 L396.1873 696.4024 L381.6076 686.9186 L367.5304 676.7189 L353.9907 665.8301 L341.0222 654.2802 L328.657 642.0991 L316.9259 629.3184 L305.8579 615.9708 L295.4803 602.0909 L285.8185 587.7141 L276.8963 572.8774 L268.7355 557.6187 L261.356 541.9771 L254.7755 525.9924 L249.0099 509.7056 L244.073 493.158 L239.9764 476.3917 L236.7295 459.4494 L234.3398 442.3741 L232.8123 425.2092 L232.1501 407.998 L232.3539 390.7841 L233.4222 373.6112 L235.3516 356.5225 L238.1363 339.5612 L241.7683 322.7701 L246.2375 306.1913 L251.5319 289.8667 L257.6371 273.8372 L264.5368 258.143 L272.2129 242.8235 L280.6451 227.917 L289.8113 213.4608 L299.6876 199.491 L310.2482 186.0424 L321.4657 173.1484 L333.3111 160.841 L345.7538 149.1509 L358.7618 138.1068 L372.3015 127.7361 L386.3381 118.0643 L400.8356 109.115 L415.757 100.9102 L431.0639 93.4699 L446.7174 86.8119 L462.6776 80.9525 L478.9036 75.9054 L495.3542 71.6828 L511.9875 68.2943 L528.7615 65.7476 L545.6334 64.0484 L562.5605 63.2 L579.5 63.2037 L596.409 64.0586 L613.2448 65.7615 L629.9649 68.3074 L646.5271 71.6889 L662.8898 75.8966 L679.0118 80.919 L694.8525 86.7425 L710.3723 93.3515 L725.5322 100.7285 L740.2942 108.8541 L754.6215 117.7069 L768.4783 127.2637 L781.83 137.4997 L794.6434 148.3883 L806.8868 159.9012 L818.5297 172.0086 L829.5433 184.6794 L839.9006 197.8809 L849.5759 211.5791 L858.5455 225.739 L866.7875 240.3241 L874.2818 255.2972 L881.0103 270.62 L886.9568 286.2534 L892.1071 302.1576 L896.4489 318.2919 L899.9722 334.6155 L902.669 351.0868 L904.5333 367.664 L905.5612 384.3051 L905.7512 400.968 L905.1035 417.6104 L903.6207 434.1904 L901.3074 450.666 L898.1704 466.9958 L894.2186 483.1386 L889.4626 499.0538 L883.9156 514.7014 L877.5923 530.0421 L870.5095 545.0374 L862.6859 559.6499 L854.1422 573.843 L844.9008 587.5811 L834.9855 600.8302 L824.4225 613.5572 L813.239 625.7305 L801.4639 637.3199 L789.1277 648.2968 L776.2621 658.634 L762.9004 668.306 L749.0767 677.2893 L734.8265 685.5618 L720.1865 693.1032 L705.1938 699.8954 L689.8868 705.9221 L674.3047 711.1687 L658.4871 715.6229 L642.4742 719.2742 L626.3067 722.1144 L610.0257 724.137 L593.6725 725.3378 L577.2885 725.7148 L560.915 725.2679 L544.5937 723.999 L528.3656 721.9123 L512.2717 719.0139 L496.3525 715.3121 L480.6481 710.8171 L465.1979 705.5411 L450.0408 699.4983 L435.2148 692.7048 L420.7569 685.1786 L406.7034 676.9396 L393.0893 668.0093 L379.9485 658.4111 L367.3139 648.17 L355.2167 637.3125 L343.687 625.8668 L332.7532 613.8625 L322.4425 601.3306 L312.7802 588.3033 L303.7899 574.8141 L295.4938 560.8976 L287.9119 546.5895 L281.0628 531.9263 L274.9629 516.9456 L269.6267 501.6855 L265.0671 486.1849 L261.2946 470.4834 L258.3178 454.6208 L256.1436 438.6374 L254.7765 422.5737 L254.2189 406.4706 L254.4716 390.3686 L255.5329 374.3086 L257.3992 358.3311 L260.0649 342.4763 L263.5225 326.7844 L267.7623 311.2946 L272.7727 296.0461 L278.5402 281.0771 L285.0494 266.425 L292.283 252.1267 L300.2218 238.2178 L308.8452 224.7332 L318.1303 211.7064 L328.0532 199.1699 L338.588 187.1547 L349.7072 175.6908 L361.3824 164.8065 L373.5831 154.5287 L386.2781 144.8826 L399.4346 135.8919 L413.0189 127.5788 L426.9962 119.9633 L441.3307 113.0641 L455.9857 106.8977 L470.9239 101.479 L486.1071 96.8207 L501.4966 92.9338 L517.0534 89.8273 L532.7379 87.5082 L548.5104 85.9814 L564.3307 85.2499 L580.159 85.3147 L595.9551 86.1747 L611.6791 87.8268 L627.2914 90.266 L642.7527 93.4853 L658.0239 97.4755 L673.0668 102.2258 L687.8434 107.7233 L702.3168 113.9532 L716.4507 120.899 L730.2098 128.5423 L743.5597 136.8629 L756.467 145.8392 L768.8998 155.4475 L780.8269 165.6631 L792.2189 176.4592 L803.0477 187.8079 L813.2863 199.6801 L822.9097 212.0449 L831.8941 224.8707 L840.2176 238.1243 L847.8599 251.772 L854.8024 265.7787 L861.0284 280.1085 L866.5231 294.7249 L871.2731 309.5906 L875.2675 324.6678 L878.497 339.9179 L880.9543 355.3024 L882.6341 370.7822 L883.533 386.3179 L883.6495 401.8703 L882.9844 417.4 L881.5402 432.8678 L879.3215 448.2346 L876.3347 463.4617 L872.5882 478.5108 L868.0925 493.3439 L862.8596 507.9239 L856.9038 522.2142 L850.241 536.179 L842.8886 549.7833 L834.8662 562.9931 L826.1948 575.7756 L816.8971 588.0988 L806.9973 599.9321 L796.5211 611.2463 L785.4957 622.0132 L773.9495 632.2064 L761.9125 641.8006 L749.4155 650.7723 L736.4907 659.0995 L723.1714 666.762 L709.4915 673.7411 L695.4862 680.02 L681.1912 685.5836 L666.643 690.4186 L651.8787 694.5137 L636.9359 697.8594 L621.8524 700.4482 L606.6667 702.2742 L591.4174 703.3338 L576.1429 703.6253 L560.8819 703.1487 L545.6731 701.9062 L530.5547 699.9017 L515.5651 697.1414 L500.7418 693.6329 L486.1222 689.3861 L471.743 684.4125 L457.6402 678.7256 L443.8493 672.3407 L430.4047 665.2746 L417.34 657.546 L404.6878 649.1752 L392.4796 640.1842 L380.7458 630.5964 L369.5154 620.4368 L358.8163 609.7316 L348.675 598.5087 L339.1163 586.7971 L330.1638 574.6267 L321.8394 562.0291 L314.1634 549.0366 L307.1544 535.6824 L300.8295 522.0009 L295.2037 508.0269 L290.2905 493.7961 L286.1015 479.3448 L282.6463 464.7098 L279.933 449.9284 L277.9673 435.0381 L276.7536 420.0766 L276.2938 405.0819 L276.5883 390.092 L277.6355 375.1447 L279.4318 360.2777 L281.9717 345.5286 L285.248 330.9346 L289.2516 316.5323 L293.9713 302.3579 L299.3945 288.4471 L305.5066 274.8345 L312.2913 261.5544 L319.7307 248.64 L327.8051 236.1233 L336.4934 224.0356 L345.773 212.4071 L355.6195 201.2664 L366.0075 190.6412 L376.91 180.5577 L388.2989 171.0409 L400.1447 162.114 L412.4171 153.799 L425.0844 146.1161 L438.114 139.084 L451.4727 132.7197 L465.1264 127.0385 L479.0399 122.0539 L493.1781 117.7778 L507.5047 114.22 L521.9833 111.3887 L536.5771 109.2902 L551.2492 107.9289 L565.9622 107.3074 L580.6791 107.4263 L595.3624 108.2844 L609.9752 109.8788 L624.4806 112.2043 L638.842 115.2544 L653.0234 119.0204 L666.989 123.4919 L680.7037 128.6568 L694.1334 134.5011 L707.2442 141.0093 L720.0035 148.164 L732.3794 155.9465 L744.3411 164.3363 L755.8589 173.3113 L766.9041 182.8483 L777.4495 192.9224 L787.4689 203.5076 L796.9376 214.5762 L805.8325 226.1 L814.1317 238.049 L821.8149 250.3927 L828.8635 263.0992 L835.2604 276.1362 L840.9902 289.47 L846.0394 303.0667 L850.3958 316.8917 L854.0494 330.9095 L856.9919 345.0847 L859.2166 359.381 L860.7188 373.7623 L861.4955 388.192 L861.5457 402.6337 L860.8702 417.0508 L859.4716 431.4068 L857.3543 445.6655 L854.5245 459.791 L850.9903 473.7478 L846.7614 487.5007 L841.8495 501.0153 L836.2678 514.2577 L830.0312 527.1946 L823.1564 539.7939 L815.6614 552.0239 L807.566 563.8544 L798.8914 575.2558 L789.6603 586.1998 L779.8968 596.6594 L769.626 606.6088 L758.8748 616.0233 L747.6707 624.8798 L736.0428 633.1566 L724.021 640.8336 L711.6361 647.892 L698.9199 654.3149 L685.905 660.0867 L672.6247 665.1936 L659.1129 669.6237 L645.4039 673.3664 L631.5328 676.4132 L617.5349 678.7574 L603.4456 680.3937 L589.3008 681.3191 L575.1362 681.5319 L560.9877 681.0327 L546.8911 679.8235 L532.8818 677.9083 L518.9953 675.2928 L505.2665 671.9846 L491.73 667.9927 L478.4196 663.3283 L465.3688 658.004 L452.6103 652.0339 L440.1759 645.4342 L428.0967 638.2222 L416.4028 630.4169 L405.1232 622.0388 L394.286 613.1099 L383.918 603.6534 L374.0447 593.6939 L364.6907 583.2572 L355.8788 572.3704 L347.6306 561.0613 L339.9663 549.3594 L332.9046 537.2947 L326.4625 524.8979 L320.6555 512.2011 L315.4975 499.2367 L311.0007 486.0377 L307.1756 472.6378 L304.0311 459.0713 L301.5742 445.3725 L299.8103 431.5764 L298.743 417.7179 L298.374 403.8322 L298.7034 389.9543 L299.7295 376.1194 L301.4488 362.3624 L303.856 348.718 L306.9442 335.2206 L310.7047 321.9041 L315.1271 308.8019 L320.1994 295.9469 L325.9079 283.3712 L332.2374 271.1064 L339.1711 259.183 L346.6907 247.6307 L354.7763 236.4784 L363.4069 225.7535 L372.5598 215.4828 L382.2114 205.6916 L392.3364 196.4041 L402.9088 187.643 L413.9012 179.4299 L425.2852 171.7848 L437.0315 164.7263 L449.1101 158.2715 L461.4899 152.436 L474.1392 147.2336 L487.0256 142.6768 L500.1164 138.7761 L513.3781 135.5407 L526.777 132.9778 L540.2789 131.0931 L553.8497 129.8904 L567.455 129.3718 L581.0602 129.5378 L594.631 130.3871 L608.1331 131.9167 L621.5324 134.1217 L634.7952 136.9957 L647.8882 140.5307 L660.7784 144.7167 L673.4336 149.5423 L685.822 154.9945 L697.9127 161.0587 L709.6754 167.7188 L721.0809 174.957 L732.1008 182.7544 L742.7078 191.0906 L752.8754 199.9436 L762.5787 209.2905 L771.7938 219.107 L780.4978 229.3675 L788.6696 240.0457 L796.2891 251.1139 L803.3378 262.5436 L809.7987 274.3055 L815.6561 286.3694 L820.8962 298.7043 L825.5063 311.2787 L829.4758 324.0605 L832.7953 337.0172 L835.4575 350.1156 L837.4565 363.3225 L838.788 376.6044 L839.4495 389.9275 L839.4404 403.2582 L838.7615 416.5627 L837.4154 429.8073 L835.4064 442.9588 L832.7406 455.9839 L829.4255 468.8499 L825.4703 481.5245 L820.8859 493.9758 L815.6848 506.1727 L809.8809 518.0847 L803.4897 529.682 L796.5282 540.9358 L789.0148 551.8179 L780.9691 562.3016 L772.4122 572.3607 L763.3665 581.9703 L753.8555 591.1068 L743.9038 599.7477 L733.5374 607.8719 L722.7827 615.4595 L711.6677 622.492 L700.2209 628.9524 L688.4718 634.8251 L676.4504 640.0961 L664.1874 644.7529 L651.7144 648.7844 L639.0629 652.1815 L626.2653 654.9362 L613.3542 657.0426 L600.3624 658.4962 L587.3228 659.2942 L574.2684 659.4355 L561.2324 658.9206 L548.2475 657.7517 L535.3466 655.9327 L522.5623 653.469 L509.9266 650.3678 L497.4713 646.6377 L485.2278 642.2891 L473.2265 637.3338 L461.4976 631.7852 L450.0704 625.658 L438.9733 618.9687 L428.2339 611.7348 L417.879 603.9755 L407.9341 595.711 L398.4238 586.963 L389.3717 577.7542 L380.7999 568.1085 L372.7295 558.051 L365.1801 547.6077 L358.1703 536.8054 L351.7169 525.6721 L345.8355 514.2363 L340.5402 502.5273 L335.8435 490.5752 L331.7566 478.4104 L328.2888 466.0641 L325.4482 453.5678 L323.241 440.9532 L321.6719 428.2524 L320.7441 415.4976 L320.4589 402.7212 L320.8162 389.9555 L321.8142 377.2328 L323.4495 364.5851 L325.7171 352.0445 L328.6103 339.6423 L332.121 327.4099 L336.2393 315.3778 L340.9542 303.5763 L346.2527 292.0348 L352.1207 280.7823 L358.5426 269.8466 L365.5013 259.2552 L372.9785 249.0341 L380.9545 239.2088 L389.4085 229.8036 L398.3184 220.8417 L407.6611 212.3451 L417.4123 204.3346 L427.5468 196.8298 L438.0384 189.8489 L448.8601 183.409 L459.9841 177.5255 L471.3817 172.2124 L483.0238 167.4825 L494.8806 163.3469 L506.9219 159.8151 L519.1168 156.8953 L531.4344 154.594 L543.8433 152.9162 L556.312 151.865 L568.8089 151.4425 L581.3024 151.6487 L593.7608 152.4821 L606.1527 153.94 L618.4469 156.0175 L630.6124 158.7086 L642.6187 162.0057 L654.4355 165.8994 L666.0333 170.3792 L677.3831 175.4328 L688.4565 181.0467 L699.226 187.2059 L709.6646 193.8939 L719.7466 201.0932 L729.4468 208.7847 L738.7414 216.9484 L747.6074 225.5629 L756.0229 234.6058 L763.9674 244.0535 L771.4215 253.8817 L778.367 264.0649 L784.787 274.5768 L790.6662 285.3905 L795.9904 296.478 L800.7469 307.8111 L804.9245 319.3606 L808.5135 331.097 L811.5058 342.9904 L813.8945 355.0105 L815.6746 367.1268 L816.8423 379.3083 L817.3957 391.5243 L817.3342 403.7438 L816.6589 415.9358 L815.3723 428.0696 L813.4787 440.1147 L810.9836 452.0405 L807.8944 463.8172 L804.2195 475.4153 L799.9694 486.8055 L795.1554 497.9595 L789.7905 508.8494 L783.8893 519.448 L777.4673 529.7289 L770.5417 539.6667 L763.1305 549.2366 L755.2534 558.415 L746.9307 567.1793 L738.1844 575.5079 L729.0372 583.3805 L719.5127 590.7776 L709.6356 597.6815 L699.4314 604.0753 L688.9264 609.9436 L678.1476 615.2723 L667.1226 620.0488 L655.8798 624.2618 L644.4478 627.9016 L632.8558 630.9595 L621.1335 633.429 L609.3105 635.3046 L597.4171 636.5823 L585.4834 637.2599 L573.5396 637.3366 L561.6158 636.813 L549.7424 635.6914 L537.9492 633.9755 L526.2659 631.6705 L514.7218 628.7832 L503.3461 625.3217 L492.1671 621.2955 L481.213 616.7158 L470.5109 611.595 L460.0877 605.9467 L449.9693 599.7861 L440.1808 593.1296 L430.7465 585.9947 L421.6896 578.4001 L413.0326 570.3658 L404.7967 561.9128 L397.0021 553.063 L389.6678 543.8394 L382.8119 534.266 L376.4507 524.3674 L370.5997 514.1693 L365.2729 503.6977 L360.483 492.9797 L356.2413 482.0426 L352.5576 470.9146 L349.4406 459.624 L346.897 448.1996 L344.9327 436.6706 L343.5515 425.0662 L342.7562 413.4158 L342.5479 401.7491 L342.9261 390.0956 L343.889 378.4847 L345.4334 366.9457 L347.5544 355.5078 L350.2458 344.1995 L353.4998 333.0494 L357.3075 322.0855 L361.6583 311.3351 L366.5404 300.8251 L371.9406 290.5818 L377.8445 280.6306 L384.2364 270.9962 L391.0993 261.7025 L398.4153 252.7726 L406.165 244.2284 L414.3282 236.091 L422.8836 228.3802 L431.8091 221.115 L441.0814 214.313 L450.6765 207.9908 L460.5698 202.1635 L470.7357 196.8451 L481.148 192.0484 L491.7802 187.7845 L502.6048 184.0636 L513.5943 180.8941 L524.7206 178.2832 L535.9554 176.2366 L547.2701 174.7587 L558.6359 173.8523 L570.024 173.5188 L581.4056 173.7581 L592.752 174.5688 L604.0343 175.9479 L615.2243 177.891 L626.2938 180.3924 L637.2149 183.4447 L647.9603 187.0396 L658.5031 191.1669 L668.817 195.8155 L678.8761 200.9727 L688.6555 206.6248 L698.1309 212.7566 L707.2787 219.3519 L716.0764 226.3933 L724.5023 233.8622 L732.5356 241.7391 L740.1567 250.0035 L747.3469 258.6338 L754.0887 267.6076 L760.3658 276.9016 L766.1631 286.4919 L771.4666 296.3538 L776.2636 306.4619 L780.543 316.7901 L784.2946 327.3121 L787.5099 338.0009 L790.1815 348.8292 L792.3036 359.7694 L793.8716 370.7937 L794.8825 381.8741 L795.3347 392.9823 L795.2278 404.0904 L794.563 415.1702 L793.343 426.1937 L791.5715 437.1331 L789.2542 447.9609 L786.3976 458.65 L783.0099 469.1734 L779.1005 479.5048 L774.6802 489.6185 L769.7608 499.4891 L764.3557 509.0922 L758.4793 518.4038 L752.1473 527.4009 L745.3763 536.0612 L738.1843 544.3633 L730.59 552.287 L722.6134 559.8126 L714.2753 566.9219 L705.5972 573.5975 L696.6018 579.8232 L687.3123 585.5841 L677.7526 590.8663 L667.9474 595.6572 L657.9219 599.9456 L647.7018 603.7213 L637.3133 606.9756 L626.7828 609.7013 L616.1373 611.8923 L605.4039 613.5438 L594.6099 614.6526 L583.7827 615.2169 L572.9496 615.2359 L562.1382 614.7106 L551.3757 613.6433 L540.6893 612.0375 L530.1059 609.8981 L519.652 607.2314 L509.354 604.0452 L499.2375 600.3481 L489.3279 596.1506 L479.6499 591.4639 L470.2277 586.3007 L461.0845 580.675 L452.2431 574.6017 L443.7253 568.0969 L435.5522 561.1779 L427.7437 553.8625 L420.3192 546.1703 L413.2968 538.1212 L406.6934 529.736 L400.5251 521.0367 L394.8069 512.0458 L389.5524 502.7865 L384.7741 493.2825 L380.4833 483.5585 L376.6901 473.6393 L373.4032 463.5504 L370.6301 453.3175 L368.3769 442.9669 L366.6485 432.5247 L365.4484 422.0178 L364.7787 411.4726 L364.6402 400.916 L365.0323 390.3747 L365.9532 379.8752 L367.3997 369.4442 L369.3673 359.1078 L371.8499 348.8921 L374.8406 338.8226 L378.3309 328.9247 L382.3111 319.223 L386.7704 309.7417 L391.6965 300.5045 L397.0763 291.5344 L402.8954 282.8535 L409.1384 274.4833 L415.7887 266.4444 L422.8288 258.7567 L430.2402 251.4389 L438.0036 244.509 L446.0987 237.9839 L454.5045 231.8792 L463.1992 226.2098 L472.1602 220.9893 L481.3646 216.23 L490.7885 211.9433 L500.4078 208.1391 L510.1978 204.8263 L520.1335 202.0124 L530.1894 199.7037 L540.34 197.905 L550.5593 196.6202 L560.8214 195.8515 L571.1003 195.6001 L581.37 195.8656 L591.6044 196.6465 L601.7779 197.9399 L611.8647 199.7417 L621.8394 202.0464 L631.6771 204.8473 L641.3531 208.1365 L650.8432 211.9048 L660.1238 216.1419 L669.1716 220.8362 L677.9642 225.975 L686.4799 231.5446 L694.6976 237.5301 L702.597 243.9157 L710.1587 250.6845 L717.3641 257.8187 L724.1957 265.2997 L730.6368 273.1078 L736.6718 281.2229 L742.2862 289.6237 L747.4664 298.2887 L752.2003 307.1953 L756.4765 316.3206 L760.2851 325.6411 L763.6172 335.133 L766.4653 344.772 L768.823 354.5333 L770.6852 364.3921 L772.0482 374.3232 L772.9092 384.3015 L773.2671 394.3016 L773.1218 404.2981 L772.4745 414.2658 L771.3279 424.1795 L769.6858 434.0143 L767.553 443.7453 L764.9359 453.3482 L761.8421 462.799 L758.2801 472.0738 L754.2598 481.1497 L749.7922 490.0041 L744.8894 498.6148 L739.5646 506.9607 L733.8321 515.0209 L727.7069 522.7758 L721.2054 530.2061 L714.3447 537.2937 L707.1428 544.0213 L699.6185 550.3725 L691.7913 556.3318 L683.6818 561.8851 L675.3108 567.0189 L666.7001 571.721 L657.8718 575.9803 L648.8487 579.7867 L639.6539 583.1317 L630.3111 586.0074 L620.8441 588.4074 L611.2771 590.3267 L601.6345 591.761 L591.9408 592.7079 L582.2206 593.1656 L572.4986 593.134 L562.7994 592.6141 L553.1474 591.608 L543.567 590.1192 L534.0823 588.1523 L524.7171 585.7131 L515.4949 582.8088 L506.4387 579.4476 L497.5712 575.6386 L488.9144 571.3925 L480.4898 566.7208 L472.3184 561.636 L464.4203 556.1518 L456.8151 550.2828 L449.5213 544.0446 L442.5569 537.4536 L435.939 530.5272 L429.6835 523.2834 L423.8056 515.7413 L418.3195 507.9203 L413.2385 499.841 L408.5744 491.5241 L404.3385 482.9911 L400.5405 474.2641 L397.1894 465.3654 L394.2927 456.318 L391.8568 447.1449 L389.8873 437.8696 L388.388 428.5158 L387.3619 419.1073 L386.8109 409.6679 L386.7352 400.2217 L387.1343 390.7925 L388.0062 381.4042 L389.3479 372.0803 L391.1551 362.8445 L393.4222 353.7198 L396.1428 344.7292 L399.309 335.8952 L402.9121 327.2397 L406.942 318.7845 L411.3878 310.5504 L416.2375 302.5578 L421.4779 294.8267 L427.0952 287.3759 L433.0742 280.2238 L439.3994 273.388 L446.054 266.8852 L453.0205 260.731 L460.2807 254.9406 L467.8157 249.5278 L475.6059 244.5055 L483.6311 239.8858 L491.8705 235.6795 L500.303 231.8966 L508.9067 228.5457 L517.6596 225.6345 L526.5392 223.1695 L535.523 221.1561 L544.5878 219.5986 L553.7107 218.4999 L562.8684 217.862 L572.0377 217.6857 L581.1954 217.9704 L590.3184 218.7145 L599.3835 219.9153 L608.3681 221.5688 L617.2495 223.67 L626.0055 226.2127 L634.6141 229.1896 L643.0539 232.5923 L651.3038 236.4115 L659.3433 240.6365 L667.1526 245.2559 L674.7123 250.2573 L682.0037 255.6273 L689.009 261.3516 L695.7109 267.4149 L702.0932 273.8013 L708.1403 280.4939 L713.8375 287.4753 L719.1712 294.7273 L724.1285 302.2309 L728.6978 309.9666 L732.868 317.9144 L736.6296 326.0539 L739.9738 334.3639 L742.8929 342.8232 L745.3805 351.4101 L747.431 360.1026 L749.0403 368.8784 L750.205 377.7153 L750.923 386.5906 L751.1936 395.482 L751.0169 404.3669 L750.3942 413.2227 L749.3281 422.0273 L747.8219 430.7583 L745.8806 439.3938 L743.5098 447.9122 L740.7165 456.2922 L737.5085 464.5128 L733.8948 472.5536 L729.8854 480.3946 L725.4911 488.0163 L720.7239 495.3999 L715.5966 502.5273 L710.123 509.3808 L704.3174 515.9437 L698.1954 522.2 L691.7731 528.1345 L685.0672 533.7327 L678.0954 538.9814 L670.8758 543.8677 L663.4272 548.3802 L655.769 552.5083 L647.9208 556.2421 L639.903 559.5731 L631.7362 562.4937 L623.4414 564.9973 L615.0398 567.0785 L606.5529 568.7328 L598.0023 569.9569 L589.4098 570.7487 L580.7973 571.1069 L572.1865 571.0317 L563.5993 570.524 L555.0573 569.5862 L546.582 568.2213 L538.1949 566.4337 L529.9168 564.2289 L521.7686 561.6134 L513.7704 558.5945 L505.9424 555.1807 L498.304 551.3815 L490.874 547.2073 L483.6708 542.6696 L476.7123 537.7803 L470.0154 532.5528 L463.5967 527.001 L457.4717 521.1395 L451.6553 514.9838 L446.1617 508.5501 L441.0039 501.8554 L436.1945 494.9171 L431.7448 487.7532 L427.6653 480.3824 L423.9655 472.8237 L420.6541 465.0966 L417.7385 457.2212 L415.2254 449.2176 L413.1202 441.1063 L411.4274 432.9081 L410.1504 424.6439 L409.2915 416.3348 L408.8521 408.0019 L408.8323 399.6664 L409.2314 391.3492 L410.0473 383.0715 L411.2772 374.8541 L412.9171 366.7177 L414.9619 358.6826 L417.4056 350.7691 L420.2411 342.9968 L423.4605 335.3851 L427.0548 327.953 L431.014 320.7189 L435.3274 313.7006 L439.9832 306.9154 L444.969 300.38 L450.2715 294.1105 L455.8764 288.122 L461.7691 282.4292 L467.9339 277.0458 L474.3547 271.9847 L481.0147 267.2581 L487.8964 262.8773 L494.9821 258.8524 L502.2532 255.1931 L509.6911 251.9076 L517.2765 249.0035 L524.9899 246.4874 L532.8115 244.3647 L540.7213 242.6399 L548.699 241.3166 L556.7244 240.3972 L564.7769 239.8832 L572.8363 239.7749 L580.882 240.0718 L588.8937 240.7722 L596.8514 241.8734 L604.7347 243.3717 L612.5242 245.2626 L620.2001 247.5403 L627.7435 250.1982 L635.1353 253.2288 L642.3574 256.6235 L649.3917 260.373 L656.2209 264.4669 L662.8282 268.8942 L669.1973 273.6429 L675.3127 278.7003 L681.1595 284.0528 L686.7234 289.6862 L691.991 295.5858 L696.9497 301.7359 L701.5875 308.1204 L705.8935 314.7226 L709.8575 321.5254 L713.4703 328.511 L716.7235 335.6615 L719.6097 342.9582 L722.1224 350.3824 L724.256 357.9151 L726.0062 365.5369 L727.3692 373.2283 L728.3426 380.9697 L728.9247 388.7414 L729.1149 396.5237 L728.9138 404.2968 L728.3226 412.041 L727.3438 419.737 L725.9807 427.3652 L724.2377 434.9065 L722.1201 442.3421 L719.6339 449.6534 L716.7865 456.8221 L713.5859 463.8304 L710.0408 470.661 L706.1613 477.2969 L701.9576 483.722 L697.4415 489.9202 L692.6249 495.8766 L687.5207 501.5765 L682.1425 507.0063 L676.5046 512.1526 L670.6219 517.0032 L664.5098 521.5465 L658.1843 525.7717 L651.6619 529.6688 L644.9597 533.2288 L638.0948 536.4434 L631.0853 539.3052 L623.949 541.808 L616.7044 543.9462 L609.3701 545.7151 L601.9648 547.1113 L594.5074 548.1321 L587.0171 548.7757 L579.5127 549.0414 L572.0133 548.9296 L564.538 548.4412 L557.1054 547.5784 L549.7344 546.3444 L542.4435 544.7432 L535.251 542.7795 L528.1748 540.4594 L521.2325 537.7894 L514.4414 534.7773 L507.8184 531.4314 L501.3797 527.761 L495.1413 523.7762 L489.1185 519.4879 L483.326 514.9075 L477.7778 510.0474 L472.4875 504.9206 L467.4679 499.5406 L462.7309 493.9219 L458.2879 488.079 L454.1495 482.0274 L450.3253 475.7828 L446.8243 469.3617 L443.6546 462.7805 L440.8233 456.0565 L438.3369 449.2069 L436.2008 442.2494 L434.4195 435.2019 L432.9966 428.0824 L431.935 420.9091 L431.2365 413.7004 L430.9017 406.4746 L430.9309 399.2499 L431.3229 392.0447 L432.0759 384.8772 L433.1871 377.7655 L434.6528 370.7273 L436.4684 363.7804 L438.6285 356.942 L441.1267 350.2293 L443.9559 343.6589 L447.108 337.2471 L450.5744 331.0098 L454.3455 324.9622 L458.4108 319.1193 L462.7595 313.4953 L467.3798 308.1039 L472.2593 302.9582 L477.3851 298.0705 L482.7435 293.4527 L488.3203 289.1157 L494.101 285.0699 L500.0704 281.3246 L506.2128 277.8887 L512.5123 274.77 L518.9526 271.9757 L525.5169 269.5121 L532.1884 267.3844 L538.9499 265.5973 L545.784 264.1544 L552.6733 263.0585 L559.6001 262.3114 L566.5469 261.9143 L573.496 261.8672 L580.4297 262.1692 L587.3307 262.8189 L594.1814 263.8136 L600.9647 265.1499 L607.6636 266.8235 L614.2614 268.8295 L620.7414 271.1618 L627.0878 273.8136 L633.2847 276.7776 L639.3169 280.0452 L645.1695 283.6075 L650.8281 287.4548 L656.2789 291.5764 L661.5087 295.9613 L666.5048 300.5977 L671.2552 305.4732 L675.7484 310.5748 L679.9738 315.889 L683.9212 321.4018 L687.5816 327.0987 L690.9464 332.9648 L694.0078 338.9848 L696.7589 345.1431 L699.1934 351.4237 L701.3062 357.8104 L703.0926 364.2867 L704.5491 370.8361 L705.6727 377.4416 L706.4617 384.0865 L706.9147 390.7537 L707.0317 397.4265 L706.813 404.0877 L706.2604 410.7207 L705.3759 417.3087 L704.1628 423.8351 L702.6249 430.2836 L700.7671 436.6381 L698.5949 442.8826 L696.1147 449.0017 L693.3335 454.9803 L690.2592 460.8035 L686.9005 466.457 L683.2665 471.9271 L679.3672 477.2002 L675.2132 482.2636 L670.8157 487.1051 L666.1865 491.713 L661.338 496.0762 L656.2831 500.1843 L651.035 504.0277 L645.6077 507.5974 L640.0153 510.885 L634.2725 513.883 L628.3942 516.5845 L622.3956 518.9837 L616.2924 521.0751 L610.1003 522.8544 L603.8351 524.318 L597.513 525.4629 L591.1501 526.2872 L584.7626 526.7896 L578.3669 526.9698 L571.9791 526.8282 L565.6153 526.3661 L559.2917 525.5855 L553.024 524.4893 L546.8282 523.0811 L540.7196 521.3654 L534.7134 519.3474 L528.8247 517.0331 L523.0679 514.4291 L517.4574 511.5428 L512.0068 508.3824 L506.7296 504.9566 L501.6386 501.2749 L496.7462 497.3473 L492.0643 493.1844 L487.604 488.7974 L483.3761 484.1982 L479.3907 479.399 L475.657 474.4124 L472.1839 469.2516 L468.9795 463.9303 L466.051 458.4623 L463.4051 452.862 L461.0477 447.1438 L458.9839 441.3227 L457.2182 435.4136 L455.7541 429.4318 L454.5944 423.3926 L453.7413 417.3116 L453.1961 411.2042 L452.9591 405.0859 L453.0302 398.9724 L453.4082 392.879 L454.0912 386.8212 L455.0768 380.8143 L456.3615 374.8732 L457.9411 369.0128 L459.8108 363.2478 L461.965 357.5924 L464.3975 352.0608 L467.1012 346.6664 L470.0686 341.4227 L473.2912 336.3424 L476.7602 331.438 L480.4661 326.7213 L484.3988 322.2036 L488.5476 317.896 L492.9015 313.8087 L497.4487 309.9514 L502.1771 306.3331 L507.0743 302.9623 L512.1274 299.8469 L517.3229 296.9939 L522.6475 294.4099 L528.0872 292.1005 L533.6277 290.0707 L539.255 288.325 L544.9543 286.8668 L550.7111 285.6989 L556.5106 284.8235 L562.3379 284.2419 L568.1782 283.9547 L574.0167 283.9617 L579.8386 284.2621 L585.6292 284.854 L591.3738 285.7352 L597.0581 286.9025 L602.6679 288.3522 L608.1892 290.0797 L613.6082 292.0796 L618.9116 294.3463 L624.0862 296.873 L629.1193 299.6525 L633.9987 302.6771 L638.7123 305.9384 L643.2488 309.4273 L647.5974 313.1342 L651.7474 317.0492 L655.689 321.1617 L659.4128 325.4605 L662.9102 329.9342 L666.1729 334.571 L669.1934 339.3586 L671.9648 344.2844 L674.481 349.3354 L676.7361 354.4986 L678.7255 359.7603 L680.4449 365.107 L681.8908 370.5249 L683.0604 376 L683.9515 381.5182 L684.5629 387.0654 L684.8939 392.6275 L684.9445 398.1904 L684.7154 403.7398 L684.2082 409.2619 L683.425 414.7426 L682.3687 420.1683 L681.0428 425.5253 L679.4517 430.8003 L677.6001 435.9802 L675.4936 441.0521 L673.1384 446.0036 L670.5411 450.8224 L667.7094 455.4969 L664.6509 460.0156 L661.3742 464.3676 L657.8884 468.5423 L654.2029 472.5298 L650.3279 476.3206 L646.2736 479.9057 L642.051 483.2767 L637.6713 486.4257 L633.1462 489.3455 L628.4875 492.0294 L623.7076 494.4715 L618.819 496.6663 L613.8344 498.6091 L608.7668 500.2958 L603.6292 501.7229 L598.4351 502.8877 L593.1976 503.7881 L587.9303 504.4228 L582.6466 504.791 L577.3599 504.8926 L572.0837 504.7283 L566.8313 504.2994 L561.616 503.6079 L556.4507 502.6565 L551.3486 501.4483 L546.3223 499.9873 L541.3843 498.2782 L536.5468 496.326 L531.8217 494.1366 L527.2206 491.7163 L522.7549 489.072 L518.4352 486.2113 L514.2723 483.142 L510.2758 479.8727 L506.4557 476.4124 L502.8207 472.7705 L499.3796 468.9569 L496.1404 464.9818 L493.1107 460.8559 L490.2973 456.5901 L487.7068 452.1959 L485.3447 447.6846 L483.2165 443.0683 L481.3265 438.3589 L479.6789 433.5688 L478.2769 428.7104 L477.1233 423.7963 L476.2201 418.839 L475.5686 413.8513 L475.1698 408.8461 L475.0236 403.836 L475.1296 398.8338 L475.4866 393.8521 L476.0928 388.9035 L476.9457 384.0004 L478.0424 379.1552 L479.3793 374.3798 L480.9519 369.6862 L482.7556 365.086 L484.7849 360.5905 L487.0338 356.2108 L489.4958 351.9575 L492.164 347.8409 L495.0309 343.8711 L498.0883 340.0575 L501.3279 336.4094 L504.7409 332.9352 L508.3178 329.6433 L512.0491 326.5412 L515.9247 323.6363 L519.9343 320.935 L524.0671 318.4437 L528.3122 316.1676 L532.6585 314.112 L537.0946 312.2812 L541.6088 310.6789 L546.1895 309.3085 L550.8247 308.1725 L555.5025 307.2729 L560.2108 306.6112 L564.9377 306.1881 L569.6709 306.0039 L574.3986 306.058 L579.1086 306.3495 L583.7892 306.8768 L588.4286 307.6376 L593.0151 308.6291 L597.5373 309.8479 L601.9839 311.2901 L606.344 312.9511 L610.6068 314.826 L614.7619 316.9091 L618.7991 319.1943 L622.7087 321.6752 L626.4812 324.3445 L630.1075 327.195 L633.579 330.2185 L636.8875 333.4068 L640.0252 336.7512 L642.9849 340.2425 L645.7596 343.8713 L648.343 347.6279 L650.7294 351.5022 L652.9135 355.4839 L654.8904 359.5626 L656.6561 363.7275 L658.2067 367.9676 L659.5393 372.272 L660.6512 376.6293 L661.5407 381.0284 L662.2062 385.458 L662.647 389.9066 L662.8628 394.3628 L662.8539 398.8154 L662.6214 403.2531 L662.1666 407.6645 L661.4917 412.0387 L660.5992 416.3647 L659.4922 420.6316 L658.1744 424.8289 L656.6501 428.9462 L654.9239 432.9734 L653.001 436.9006 L650.8871 440.7182 L648.5884 444.4169 L646.1114 447.988 L643.4631 451.4227 L640.6511 454.713 L637.683 457.8511 L634.5671 460.8296 L631.3118 463.6416 L627.9261 466.2807 L624.4192 468.7408 L620.8002 471.0165 L617.0791 473.1027 L613.2656 474.995 L609.3697 476.6893 L605.4018 478.1821 L601.3722 479.4705 L597.2914 480.5521 L593.17 481.4249 L589.0187 482.0877 L584.8481 482.5397 L580.6689 482.7805 L576.4918 482.8106 L572.3273 482.6306 L568.186 482.2419 L564.0782 481.6465 L560.0145 480.8466 L556.0048 479.8453 L552.0591 478.6459 L548.1871 477.2523 L544.3985 475.6689 L540.7024 473.9005 L537.1078 471.9525 L533.6236 469.8305 L530.258 467.5407 L527.019 465.0897 L523.9144 462.4844 L520.9515 459.732 L518.1371 456.8403 L515.4778 453.8172 L512.9797 450.6709 L510.6484 447.4101 L508.4891 444.0434 L506.5065 440.5799 L504.705 437.0289 L503.0881 433.3998 L501.6593 429.7021 L500.4214 425.9456 L499.3765 422.14 L498.5266 418.2954 L497.873 414.4215 L497.4163 410.5285 L497.1569 406.6263 L497.0945 402.7248 L497.2284 398.834 L497.5574 394.9638 L498.0798 391.1238 L498.7932 387.3238 L499.6952 383.5732 L500.7824 379.8812 L502.0512 376.2571 L503.4977 372.7098 L505.1173 369.2479 L506.9051 365.8798 L508.8557 362.6136 L510.9634 359.4573 L513.2222 356.4183 L515.6255 353.5038 L518.1667 350.7206 L520.8386 348.0752 L523.6337 345.5737 L526.5444 343.2218 L529.5627 341.0248 L532.6804 338.9875 L535.8892 337.1143 L539.1803 335.4092 L542.5451 333.8759 L545.9747 332.5172 L549.4599 331.336 L552.9916 330.3342 L556.5608 329.5137 L560.158 328.8756 L563.7739 328.4207 L567.3993 328.1492 L571.025 328.061 L574.6415 328.1553 L578.2399 328.4311 L581.811 328.8867 L585.3459 329.5202 L588.8357 330.3289 L592.2718 331.3101 L595.6457 332.4603 L598.9491 333.7757 L602.1739 335.2523 L605.3123 336.8854 L608.3568 338.6701 L611.3001 340.6011 L614.1351 342.6727 L616.8553 344.879 L619.4542 347.2137 L621.9258 349.67 L624.2645 352.2413 L626.465 354.9203 L628.5224 357.6997 L630.4322 360.5718 L632.1902 363.5289 L633.7928 366.5631 L635.2368 369.6661 L636.5192 372.8297 L637.6375 376.0455 L638.5898 379.3051 L639.3746 382.5999 L639.9907 385.9214 L640.4374 389.2609 L640.7145 392.6098 L640.8221 395.9595 L640.7609 399.3016 L640.5318 402.6274 L640.1365 405.9287 L639.5767 409.1971 L638.8549 412.4245 L637.9736 415.6028 L636.936 418.7242 L635.7456 421.781 L634.4062 424.7659 L632.9221 427.6715 L631.2978 430.4909 L629.5382 433.2174 L627.6486 435.8445 L625.6345 438.3661 L623.5016 440.7762 L621.2562 443.0694 L618.9045 445.2404 L616.4532 447.2844 L613.909 449.1969 L611.2789 450.9737 L608.5703 452.611 L605.7903 454.1054 L602.9465 455.4539 L600.0465 456.6539 L597.0981 457.7032 L594.1089 458.5999 L591.087 459.3426 L588.0403 459.9303 L584.9765 460.3623 L581.9037 460.6385 L578.8297 460.7589 L575.7625 460.7243 L572.7097 460.5356 L569.6791 460.1942 L566.6785 459.7017 L563.7151 459.0604 L560.7964 458.2728 L557.9296 457.3417 L555.1217 456.2703 L552.3796 455.0622 L549.7098 453.7213 L547.1188 452.2519 L544.6127 450.6583 L542.1974 448.9455 L539.8785 447.1185 L537.6616 445.1827 L535.5514 443.1437 L533.5529 441.0073 L531.6703 438.7795 L529.9081 436.4667 L528.2697 434.0752 L526.7588 431.6116 L525.3784 429.0828 L524.1311 426.4955 L523.0194 423.8567 L522.0453 421.1736 L521.2105 418.4531 L520.5162 415.7027 L519.9634 412.9294 L519.5524 410.1404 L519.2836 407.3432 L519.1567 404.5448 L519.1712 401.7524 L519.3261 398.9732 L519.6201 396.2142 L520.0516 393.4823 L520.6187 390.7844 L521.3189 388.127 L522.1497 385.5169 L523.1081 382.9603 L524.1908 380.4635 L525.3942 378.0325 L526.7145 375.6731 L528.1475 373.3909 L529.6888 371.1912 L531.3337 369.0791 L533.0774 367.0595 L534.9147 365.1369 L536.8403 363.3156 L538.8486 361.5996 L540.934 359.9926 L543.0906 358.4981 L545.3124 357.119 L547.5932 355.8582 L549.9269 354.7181 L552.3069 353.7008 L554.7271 352.808 L557.1807 352.0413 L559.6613 351.4016 L562.1624 350.8899 L564.6774 350.5065 L567.1997 350.2515 L569.7228 350.1247 L572.2402 350.1255 L574.7455 350.2531 L577.2324 350.5061 L579.6946 350.8831 L582.1259 351.3822 L584.5202 352.0014 L586.8717 352.738 L589.1747 353.5895 L591.4236 354.5528 L593.613 355.6245 L595.7377 356.8013 L597.7926 358.0792 L599.7731 359.4543 L601.6745 360.9224 L603.4926 362.4789 L605.2231 364.1191 L606.8625 365.8384 L608.4071 367.6316 L609.8536 369.4936 L611.1992 371.419 L612.4409 373.4026 L613.5764 375.4386 L614.6036 377.5214 L615.5206 379.6454 L616.326 381.8048 L617.0186 383.9937 L617.5973 386.2062 L618.0615 388.4365 L618.411 390.6786 L618.6458 392.9267 L618.7661 395.175 L618.7724 397.4176 L618.6658 399.6489 L618.4473 401.863 L618.1183 404.0545 L617.6807 406.2179 L617.1364 408.3477 L616.4876 410.4389 L615.7369 412.4862 L614.8871 414.4848 L613.9411 416.4298 L612.9021 418.3167 L611.7737 420.1411 L610.5593 421.8987 L609.263 423.5856 L607.8887 425.1979 L606.4406 426.7322 L604.9232 428.1851 L603.3407 429.5535 L601.6981 430.8346 L599.9999 432.0258 L598.251 433.1248 L596.4565 434.1294 L594.6214 435.038 L592.7507 435.8489 L590.8497 436.561 L588.9235 437.1731 L586.9773 437.6847 L585.0163 438.0952 L583.0458 438.4044 L581.071 438.6125 L579.097 438.7198 L577.129 438.7268 L575.172 438.6346 L573.231 438.4441 L571.3109 438.1568 L569.4164 437.7744 L567.5524 437.2985 L565.7234 436.7314 L563.9338 436.0754 L562.1879 435.3329 L560.4899 434.5067 L558.8436 433.5998 L557.2531 432.6151 L555.7217 431.5561 L554.2531 430.4262 L552.8505 429.229 L551.5168 427.9683 L550.2549 426.6479 L549.0674 425.2718 L547.9567 423.8443 L546.9249 422.3694 L545.9741 420.8517 L545.1058 419.2953 L544.3215 417.7048 L543.6226 416.0846 L543.0098 414.4393 L542.4841 412.7735 L542.0459 411.0917 L541.6954 409.3984 L541.4329 407.6983 L541.2578 405.9958 L541.17 404.2955 L541.1687 402.6017 L541.2531 400.9189 L541.4219 399.2513 L541.674 397.6033 L542.0078 395.9788 L542.4214 394.3819 L542.9131 392.8166 L543.4807 391.2866 L544.1219 389.7956 L544.8342 388.347 L545.6151 386.9443 L546.4615 385.5906 L547.3707 384.289 L548.3395 383.0423 L549.3648 381.8533 L550.4432 380.7243 L551.5712 379.6578 L552.7454 378.6559 L553.9621 377.7205 L555.2176 376.8532 L556.5081 376.0557 L557.8299 375.3293 L559.179 374.675 L560.5516 374.0937 L561.9437 373.5862 L563.3515 373.153 L564.7709 372.7943 L566.1982 372.5101 L567.6294 372.3004 L569.0607 372.1649 L570.4881 372.1029 L571.9081 372.1138 L573.3168 372.1967 L574.7107 372.3505 L576.0862 372.5738 L577.4399 372.8652 L578.7685 373.2231 L580.0686 373.6458 L581.3372 374.1312 L582.5712 374.6772 L583.7679 375.2816 L584.9244 375.9421 L586.0382 376.6562 L587.1068 377.4212 L588.128 378.2343 L589.0996 379.0929 L590.0197 379.994 L590.8865 380.9344 L591.6983 381.9114 L592.4537 382.9215 L593.1514 383.9618 L593.7903 385.0289 L594.3696 386.1197 L594.8884 387.2307 L595.3462 388.3587 L595.7426 389.5005 L596.0773 390.6526 L596.3505 391.8119 L596.5621 392.975 L596.7126 394.1388 L596.8023 395.3 L596.832 396.4555 L596.8024 397.6022 L596.7145 398.7371 L596.5694 399.8572 L596.3683 400.9598 L596.1128 402.042 L595.8043 403.1011 L595.4444 404.1347 L595.035 405.1402 L594.5779 406.1153 L594.0753 407.0577 L593.5292 407.9654 L592.9418 408.8364 L592.3154 409.6689 L591.6523 410.4611 L590.9552 411.2115 L590.2264 411.9188 L589.4686 412.5816 L588.6843 413.1988 L587.8762 413.7694 L587.0469 414.2927 L586.1992 414.7679 L585.3359 415.1946 L584.4595 415.5724 L583.5729 415.9011 L582.6786 416.1806 L581.7795 416.4109 L580.8782 416.5924 L579.9773 416.7254 L579.0793 416.8103 L578.1869 416.8479 L577.3024 416.8389 L576.4283 416.7842 L575.5669 416.6848 L574.7204 416.5419 L573.8911 416.3567 L573.0811 416.1306 L572.2922 415.865 L571.5265 415.5615 L570.7857 415.2218 L570.0715 414.8476 L569.3854 414.4407 L568.7291 414.0029 L568.1036 413.5363 L567.5104 413.0428 L566.9505 412.5245 L566.4249 411.9834 L565.9344 411.4217 L565.4797 410.8415 L565.0615 410.2451 L564.6802 409.6345 L564.3363 409.012 L564.0298 408.3797 L563.7609 407.7399 L563.5295 407.0947 L563.3356 406.4463 L563.1788 405.7967 L563.0587 405.148 L562.9749 404.5023 L562.9268 403.8615 L562.9136 403.2276 L562.9344 402.6024 L562.9885 401.9878 L563.0748 401.3854 L563.1921 400.7971 L563.3394 400.2242 L563.5152 399.6683 L563.7183 399.1309 L563.9473 398.6132 L564.2008 398.1165 L564.4771 397.6418 L564.7747 397.1902 L565.092 396.7627 L565.4274 396.36 L565.7791 395.9828 L566.1455 395.6319 L566.5247 395.3076 L566.9152 395.0103 L567.315 394.7403 L567.7225 394.4979 L568.136 394.283 L568.5536 394.0957 L568.9738 393.9358 L569.3947 393.803 L569.8148 393.6971 L570.2325 393.6176 L570.6461 393.5639 L571.0541 393.5355 L571.4552 393.5316 L571.8478 393.5515 L572.2305 393.5942 L572.6022 393.659 L572.9617 393.7446 L573.3076 393.8501 L573.6391 393.9743 L573.955 394.116 L574.2546 394.274 L574.5369 394.447 L574.8013 394.6336 L575.0472 394.8325 L575.2739 395.0423 L575.4811 395.2615 L575.6683 395.4888 L575.8354 395.7227 L575.9821 395.9617 L576.1083 396.2045 L576.2142 396.4495 L576.2998 396.6953 L576.3653 396.9406 L576.4109 397.1839 L576.4373 397.4238 L576.4445 397.6591 L576.4335 397.8885 L576.4046 398.1108 L576.3587 398.3246 L576.2966 398.529 L576.2189 398.7228 L576.1268 398.905 L576.0212 399.0746 L575.9031 399.2309 L575.7736 399.3729 L575.6339 399.5 L575.4851 399.6115 L575.3284 399.7068 L575.1652 399.7854 L574.9966 399.847 L574.8241 399.8912 L574.6489 399.9178 L574.4724 399.9267"
         style="fill:none;fill-rule:evenodd;stroke:#21a7ff;stroke-opacity:0.25479451"
         id="path2" />
    </g>
    <path
       style="fill:#784421;stroke:none;stroke-width:11.4;stroke-dasharray:none;opacity:0.8"
       d="m 723.92732,715.63613 -85.66665,27.03996"
       id="path4"
       inkscape:export-filename="path6.jpg"
       inkscape:export-xdpi="600"
       inkscape:export-ydpi="600" />
    <path
       style="font-style:normal;font-weight:normal;font-size:12px;font-family:Dialog;color-interpolation:auto;fill:#00ffff;fill-opacity:1;stroke:#ffe680;stroke-width:1.17879;stroke-linecap:round;stroke-linejoin:miter;stroke-miterlimit:10;stroke-dasharray:none;stroke-dashoffset:0;stroke-opacity:1;paint-order:normal;color-rendering:auto;image-rendering:auto;shape-rendering:auto;text-rendering:auto;opacity:0.8"
       d="m 796.3539,671.22629 -72.47632,44.41159"
       id="path5-4" />
    <path
       style="opacity:1;fill:#00ffff;stroke:#ffe680;stroke-width:0.99999969;stroke-dasharray:none;stroke-linejoin:miter;paint-order:normal;stroke-linecap:round"
       d="m 723.92732,715.63613 -85.66665,27.03996"
       id="path5" />
    <path
       style="opacity:1;fill:#00ffff;stroke:#000000;stroke-width:0.5;stroke-linecap:butt;stroke-linejoin:miter;stroke-dasharray:none;paint-order:normal"
       d="m 574.24712,399.72623 63.62032,342.68732"
       id="path7" />
    <path
       style="opacity:1;fill:#00ffff;stroke:#000000;stroke-width:0.5;stroke-linecap:butt;stroke-linejoin:miter;stroke-dasharray:none;paint-order:normal;marker-end:url(#ArrowWideHeavy)"
       d="M 638.29159,742.80878 522.98723,764.33459"
       id="path8" />
    <path
       style="opacity:1;fill:#00ffff;stroke:#000000;stroke-width:0.5;stroke-linecap:butt;stroke-linejoin:miter;stroke-dasharray:none;paint-order:normal;marker-end:"
       d="M 642.11986,741.56114 526.97658,777.17378"
       id="path9" />
    <path
       style="opacity:1;fill:none;stroke:#000000;stroke-width:0.5;stroke-linecap:butt;stroke-linejoin:miter;stroke-dasharray:none;paint-order:normal"
       d="m 573.26369,754.97118 c 0,0 -2.57205,4.8415 1.36167,6.95966"
       id="path10" />
    <path
       style="opacity:1;fill:none;stroke:#000000;stroke-width:0.5;stroke-linecap:butt;stroke-linejoin:miter;stroke-dasharray:none;marker-end:url(#marker17);paint-order:normal"
       d="m 723.7588,716.00561 -51.93624,27.7105"
       id="path11" />
    <path
       style="opacity:1;fill:none;stroke:#000000;stroke-width:0.5;stroke-linecap:butt;stroke-linejoin:miter;stroke-dasharray:none;paint-order:normal;marker-end:"
       d="m 723.73765,715.68771 -71.83674,22.70885"
       id="path14" />
    <path
       style="opacity:1;fill:none;stroke:#000000;stroke-width:0.5;stroke-linecap:butt;stroke-linejoin:miter;stroke-dasharray:none;paint-order:normal"
       d="M 723.63383,715.70966 574.23802,399.7086"
       id="path16" />
    <text
       xml:space="preserve"
       style="font-style:normal;font-variant:normal;font-weight:normal;font-stretch:normal;font-size:5.33333px;font-family:Arial;-inkscape-font-specification:Arial;text-align:start;writing-mode:lr-tb;direction:ltr;text-anchor:start;opacity:1;fill:#24221c;stroke:#000000;stroke-width:0.5;stroke-linecap:butt;stroke-linejoin:miter;stroke-dasharray:none;paint-order:normal"
       x="566.80524"
       y="761.63257"
       id="text18"><tspan
         id="tspan18"
         x="566.80524"
         y="761.63257"
         sodipodi:role="line"
         style="font-size:5.33333px;fill:#24221c;stroke:none">α</tspan></text>
    <text
       xml:space="preserve"
       style="font-style:normal;font-variant:normal;font-weight:normal;font-stretch:normal;font-size:5.33333px;font-family:Arial;-inkscape-font-specification:Arial;text-align:start;writing-mode:lr-tb;direction:ltr;text-anchor:start;opacity:1;fill:#24221c;stroke:none;stroke-width:0.5;stroke-linecap:butt;stroke-linejoin:miter;stroke-dasharray:none;paint-order:normal"
       x="680.40955"
       y="749.24371"
       id="text19"><tspan
         sodipodi:role="line"
         id="tspan19"
         x="680.40955"
         y="749.24371">β</tspan></text>
    <text
       xml:space="preserve"
       style="font-style:normal;font-variant:normal;font-weight:normal;font-stretch:normal;font-size:5.33333px;font-family:Arial;-inkscape-font-specification:Arial;text-align:start;writing-mode:lr-tb;direction:ltr;text-anchor:start;opacity:1;fill:#24221c;stroke:none;stroke-width:0.5;stroke-linecap:butt;stroke-linejoin:miter;stroke-dasharray:none;paint-order:normal"
       x="512.87659"
       y="761.29114"
       id="text20"><tspan
         sodipodi:role="line"
         id="tspan20"
         x="512.87659"
         y="761.29114">v</tspan></text>
    <text
       xml:space="preserve"
       style="font-style:normal;font-variant:normal;font-weight:normal;font-stretch:normal;font-size:5.33333px;font-family:Arial;-inkscape-font-specification:Arial;text-align:start;writing-mode:lr-tb;direction:ltr;text-anchor:start;opacity:1;fill:#24221c;stroke:none;stroke-width:0.5;stroke-linecap:butt;stroke-linejoin:miter;stroke-dasharray:none;paint-order:normal"
       x="666.69012"
       y="748.1214"
       id="text21"><tspan
         sodipodi:role="line"
         id="tspan21"
         x="666.69012"
         y="748.1214">v'</tspan></text>
    <text
       xml:space="preserve"
       style="font-style:normal;font-variant:normal;font-weight:normal;font-stretch:normal;font-size:5.33333px;font-family:Arial;-inkscape-font-specification:Arial;text-align:start;writing-mode:lr-tb;direction:ltr;text-anchor:start;opacity:1;fill:#24221c;stroke:none;stroke-width:0.5;stroke-linecap:butt;stroke-linejoin:miter;stroke-dasharray:none;paint-order:normal"
       x="633.7674"
       y="783.32965"
       id="text22"><tspan
         sodipodi:role="line"
         id="tspan22"
         x="633.7674"
         y="783.32965"> </tspan></text>
    <circle
       style="opacity:1;fill:#24221c;stroke:#a05a2c;stroke-width:0.5;stroke-linecap:butt;stroke-linejoin:miter;stroke-dasharray:none;paint-order:normal"
       id="path22"
       cx="637.86743"
       cy="742.79181"
       r="0.83213258" />
    <circle
       style="opacity:1;fill:#24221c;stroke:#a05a2c;stroke-width:0.5;stroke-linecap:butt;stroke-linejoin:miter;stroke-dasharray:none;paint-order:normal"
       id="path23"
       cx="723.80402"
       cy="715.93658"
       r="0.83213258" />
    <ellipse
       style="opacity:1;fill:#24221c;stroke:#a05a2c;stroke-width:0.5;stroke-linecap:butt;stroke-linejoin:miter;stroke-dasharray:none;paint-order:normal"
       id="path24"
       cx="796.46179"
       cy="671.18469"
       rx="0.77600002"
       ry="0.77562684" />
    <path
       style="fill:none;stroke:#000000;stroke-width:0.5;stroke-opacity:1;stroke-dasharray:none"
       d="m 631.1093,738.96094 3.43757,10.86652 96.53182,-30.4759 -3.43025,-10.8668 z"
       id="path13" />
    <path
       style="fill:none;stroke:#000000;stroke-width:0.5;stroke-dasharray:none;stroke-opacity:1"
       d="m 721.49198,724.06133 -5.9181,-9.76836 83.76987,-51.0622 5.95575,9.76532 z"
       id="path15" />
    <path
       style="fill:none;stroke:#000000;stroke-width:0.5;stroke-dasharray:none;stroke-opacity:1"
       d="m 681.29115,736.81341 -0.39431,7.42571"
       id="path18" />
    <path
       style="fill:none;stroke:#000000;stroke-width:0.5;stroke-dasharray:none;stroke-opacity:1"
       d="m 681.09399,729.15611 c 0,0 -3.33828,7.86404 2.72619,8.15869"
       id="path19" />
  </g>
</svg>
